<svg width="112px" height="112px" viewBox="0 0 112 112" version="1.1" xmlns="http://www.w3.org/2000/svg" xmlns:xlink="http://www.w3.org/1999/xlink">
    <defs>
        <filter x="-5.4%" y="-5.4%" width="110.8%" height="110.8%" filterUnits="objectBoundingBox" id="filter-1">
            <feOffset dx="0" dy="0" in="SourceAlpha" result="shadowOffsetOuter1"></feOffset>
            <feGaussianBlur stdDeviation="1.5" in="shadowOffsetOuter1" result="shadowBlurOuter1"></feGaussianBlur>
            <feColorMatrix values="0 0 0 0 0   0 0 0 0 0   0 0 0 0 0  0 0 0 0.371339598 0" type="matrix" in="shadowBlurOuter1" result="shadowMatrixOuter1"></feColorMatrix>
            <feMerge>
                <feMergeNode in="shadowMatrixOuter1"></feMergeNode>
                <feMergeNode in="SourceGraphic"></feMergeNode>
            </feMerge>
        </filter>
    </defs>
    <g stroke="none" stroke-width="1" fill="none" fill-rule="evenodd">
        <g transform="translate(-13.000000, -13.000000)">
            <g filter="url(#filter-1)" transform="translate(9.000000, 9.000000)">
                <rect stroke="#FFFFFF" stroke-width="5" x="18.5" y="18.5" width="83" height="83" rx="5"></rect>
                <path d="M29,24 L91,24 C93.7614237,24 96,26.2385763 96,29 L96,91 C96,93.7614237 93.7614237,96 91,96 L29,96 C26.2385763,96 24,93.7614237 24,91 L24,29 C24,26.2385763 26.2385763,24 29,24 Z M36,34 L55,34 C56.1045695,34 57,34.8954305 57,36 L57,55 C57,56.1045695 56.1045695,57 55,57 L36,57 C34.8954305,57 34,56.1045695 34,55 L34,36 C34,34.8954305 34.8954305,34 36,34 Z M36,64 L42,64 C43.1045695,64 44,64.8954305 44,66 L44,85 C44,86.1045695 43.1045695,87 42,87 L36,87 C34.8954305,87 34,86.1045695 34,85 L34,66 C34,64.8954305 34.8954305,64 36,64 Z M49,64 L55,64 C56.1045695,64 57,64.8954305 57,66 L57,85 C57,86.1045695 56.1045695,87 55,87 L49,87 C47.8954305,87 47,86.1045695 47,85 L47,66 C47,64.8954305 47.8954305,64 49,64 Z M65,34 L84,34 C85.1045695,34 86,34.8954305 86,36 L86,55 C86,56.1045695 85.1045695,57 84,57 L65,57 C63.8954305,57 63,56.1045695 63,55 L63,36 C63,34.8954305 63.8954305,34 65,34 Z M65,64 L71,64 C72.1045695,64 73,64.8954305 73,66 L73,85 C73,86.1045695 72.1045695,87 71,87 L65,87 C63.8954305,87 63,86.1045695 63,85 L63,66 C63,64.8954305 63.8954305,64 65,64 Z M78,64 L84,64 C85.1045695,64 86,64.8954305 86,66 L86,85 C86,86.1045695 85.1045695,87 84,87 L78,87 C76.8954305,87 76,86.1045695 76,85 L76,66 C76,64.8954305 76.8954305,64 78,64 Z" fill="#FFFFFF"></path>
                <g transform="translate(35.000000, 0.000000)" fill="#FFFFFF" stroke="#FFFFFF">
                    <path d="M0.75,15.875 L5.25,15.875 L5.25,9.40052915 C4.95647914,8.15788847 3.71117415,7.38847483 2.46853346,7.68199569 C1.61651032,7.88324982 0.951254128,8.54850602 0.75,9.40052915 L0.75,9.40052915 L0.75,15.875 Z"></path>
                    <path d="M33.9375,15.875 L38.4375,15.875 L38.4375,9.40052915 C38.1439791,8.15788847 36.8986741,7.38847483 35.6560335,7.68199569 C34.8040103,7.88324982 34.1387541,8.54850602 33.9375,9.40052915 L33.9375,9.40052915 L33.9375,15.875 Z"></path>
                    <path d="M22.875,15.875 L27.375,15.875 L27.375,9.40052915 C27.0814791,8.15788847 25.8361741,7.38847483 24.5935335,7.68199569 C23.7415103,7.88324982 23.0762541,8.54850602 22.875,9.40052915 L22.875,9.40052915 L22.875,15.875 Z"></path>
                    <path d="M11.8125,15.875 L16.3125,15.875 L16.3125,9.40052915 C16.0189791,8.15788847 14.7736741,7.38847483 13.5310335,7.68199569 C12.6790103,7.88324982 12.0137541,8.54850602 11.8125,9.40052915 L11.8125,9.40052915 L11.8125,15.875 Z"></path>
                    <path d="M45,16 L49.5,16 L49.5,9.52552915 C49.2064791,8.28288847 47.9611741,7.51347483 46.7185335,7.80699569 C45.8665103,8.00824982 45.2012541,8.67350602 45,9.52552915 L45,9.52552915 L45,16 Z"></path>
                </g>
                <g transform="translate(60.000000, 112.000000) rotate(180.000000) translate(-60.000000, -112.000000) translate(35.000000, 104.000000)" fill="#FFFFFF" stroke="#FFFFFF">
                    <path d="M0.75,15.875 L5.25,15.875 L5.25,9.40052915 C4.95647914,8.15788847 3.71117415,7.38847483 2.46853346,7.68199569 C1.61651032,7.88324982 0.951254128,8.54850602 0.75,9.40052915 L0.75,9.40052915 L0.75,15.875 Z"></path>
                    <path d="M33.9375,15.875 L38.4375,15.875 L38.4375,9.40052915 C38.1439791,8.15788847 36.8986741,7.38847483 35.6560335,7.68199569 C34.8040103,7.88324982 34.1387541,8.54850602 33.9375,9.40052915 L33.9375,9.40052915 L33.9375,15.875 Z"></path>
                    <path d="M22.875,15.875 L27.375,15.875 L27.375,9.40052915 C27.0814791,8.15788847 25.8361741,7.38847483 24.5935335,7.68199569 C23.7415103,7.88324982 23.0762541,8.54850602 22.875,9.40052915 L22.875,9.40052915 L22.875,15.875 Z"></path>
                    <path d="M11.8125,15.875 L16.3125,15.875 L16.3125,9.40052915 C16.0189791,8.15788847 14.7736741,7.38847483 13.5310335,7.68199569 C12.6790103,7.88324982 12.0137541,8.54850602 11.8125,9.40052915 L11.8125,9.40052915 L11.8125,15.875 Z"></path>
                    <path d="M45,16 L49.5,16 L49.5,9.52552915 C49.2064791,8.28288847 47.9611741,7.51347483 46.7185335,7.80699569 C45.8665103,8.00824982 45.2012541,8.67350602 45,9.52552915 L45,9.52552915 L45,16 Z"></path>
                </g>
                <g transform="translate(112.000000, 60.000000) rotate(90.000000) translate(-112.000000, -60.000000) translate(87.000000, 52.000000)" fill="#FFFFFF" stroke="#FFFFFF">
                    <path d="M0.75,15.875 L5.25,15.875 L5.25,9.40052915 C4.95647914,8.15788847 3.71117415,7.38847483 2.46853346,7.68199569 C1.61651032,7.88324982 0.951254128,8.54850602 0.75,9.40052915 L0.75,9.40052915 L0.75,15.875 Z"></path>
                    <path d="M33.9375,15.875 L38.4375,15.875 L38.4375,9.40052915 C38.1439791,8.15788847 36.8986741,7.38847483 35.6560335,7.68199569 C34.8040103,7.88324982 34.1387541,8.54850602 33.9375,9.40052915 L33.9375,9.40052915 L33.9375,15.875 Z"></path>
                    <path d="M22.875,15.875 L27.375,15.875 L27.375,9.40052915 C27.0814791,8.15788847 25.8361741,7.38847483 24.5935335,7.68199569 C23.7415103,7.88324982 23.0762541,8.54850602 22.875,9.40052915 L22.875,9.40052915 L22.875,15.875 Z"></path>
                    <path d="M11.8125,15.875 L16.3125,15.875 L16.3125,9.40052915 C16.0189791,8.15788847 14.7736741,7.38847483 13.5310335,7.68199569 C12.6790103,7.88324982 12.0137541,8.54850602 11.8125,9.40052915 L11.8125,9.40052915 L11.8125,15.875 Z"></path>
                    <path d="M45,16 L49.5,16 L49.5,9.52552915 C49.2064791,8.28288847 47.9611741,7.51347483 46.7185335,7.80699569 C45.8665103,8.00824982 45.2012541,8.67350602 45,9.52552915 L45,9.52552915 L45,16 Z"></path>
                </g>
                <g transform="translate(8.000000, 60.000000) rotate(270.000000) translate(-8.000000, -60.000000) translate(-17.000000, 52.000000)" fill="#FFFFFF" stroke="#FFFFFF">
                    <path d="M0.75,15.875 L5.25,15.875 L5.25,9.40052915 C4.95647914,8.15788847 3.71117415,7.38847483 2.46853346,7.68199569 C1.61651032,7.88324982 0.951254128,8.54850602 0.75,9.40052915 L0.75,9.40052915 L0.75,15.875 Z"></path>
                    <path d="M33.9375,15.875 L38.4375,15.875 L38.4375,9.40052915 C38.1439791,8.15788847 36.8986741,7.38847483 35.6560335,7.68199569 C34.8040103,7.88324982 34.1387541,8.54850602 33.9375,9.40052915 L33.9375,9.40052915 L33.9375,15.875 Z"></path>
                    <path d="M22.875,15.875 L27.375,15.875 L27.375,9.40052915 C27.0814791,8.15788847 25.8361741,7.38847483 24.5935335,7.68199569 C23.7415103,7.88324982 23.0762541,8.54850602 22.875,9.40052915 L22.875,9.40052915 L22.875,15.875 Z"></path>
                    <path d="M11.8125,15.875 L16.3125,15.875 L16.3125,9.40052915 C16.0189791,8.15788847 14.7736741,7.38847483 13.5310335,7.68199569 C12.6790103,7.88324982 12.0137541,8.54850602 11.8125,9.40052915 L11.8125,9.40052915 L11.8125,15.875 Z"></path>
                    <path d="M45,16 L49.5,16 L49.5,9.52552915 C49.2064791,8.28288847 47.9611741,7.51347483 46.7185335,7.80699569 C45.8665103,8.00824982 45.2012541,8.67350602 45,9.52552915 L45,9.52552915 L45,16 Z"></path>
                </g>
            </g>
        </g>
    </g>
</svg>
